# xmcd
#
# Track frame offsets:
#	150
#	19893
#	38081
#	55342
#	75914
#	90596
#	109865
#	127186
#	147341
#	167084
#	185272
#	202533
#	223105
#	237787
#	257056
#	274377
#	305932
#
# Disc length: 4092 seconds
#
# Revision: 1
# Processed by: cddbd v1.5.1PL0 Copyright (c) Steve Scherf et al.
# Submitted via: audiograbber 1.83.01
#
DISCID=f00ffa11
DTITLE=Various Artist - Sound Choice PowerPicks Country Picks - Vol. 200
DYEAR=1900
DGENRE=
TTITLE0=Josh Gracin (Perf) - Stay With Me (Brass Bed)
TTITLE1=Toby Keith - As good As I Once Was (Perf)
TTITLE2=Mindy Smith - One Moment More (Perf)
TTITLE3=Brad Paisley - Alcohol (Perf)
TTITLE4=Erika Jo - I Break Things (Perf)
TTITLE5=Van Zant - Help Somebody (Perf)
TTITLE6=Kenny Chesney - Keg In The Closet (Perf)
TTITLE7=Montgomery Gentry - Something To Be Proud Of (Perf)
TTITLE8=Josh Gracin - Stay With Me (Brass Bed) (Demo)
TTITLE9=Toby Keith - As Good As I Once Was (Demo)
TTITLE10=Mindy Smith - One Moment More (Demo)
TTITLE11=Brad Paisley - Alcohol (Demo)
TTITLE12=Erika Jo - I Break Things (Demo)
TTITLE13=Van Zant - Help Somebody (Demo)
TTITLE14=Kenny Chesney - Keg In The Closet (Demo)
TTITLE15=Montgomery Gentry - Something To Be Proud Of (Demo)
TTITLE16=Data Track - Data Track
EXTD=
EXTT0=
EXTT1=
EXTT2=
EXTT3=
EXTT4=
EXTT5=
EXTT6=
EXTT7=
EXTT8=
EXTT9=
EXTT10=
EXTT11=
EXTT12=
EXTT13=
EXTT14=
EXTT15=
EXTT16=
PLAYORDER=
